<?xml version="1.0" encoding="utf-8"?>
<!-- Generator: Adobe Illustrator 24.0.1, SVG Export Plug-In . SVG Version: 6.00 Build 0)  -->
<svg version="1.1" id="Layer_1" xmlns="http://www.w3.org/2000/svg" xmlns:xlink="http://www.w3.org/1999/xlink" x="0px" y="0px"
	 viewBox="0 0 797.3 238" style="enable-background:new 0 0 797.3 238;" xml:space="preserve">
<style type="text/css">
	.st0{fill-rule:evenodd;clip-rule:evenodd;fill:#FFFFFF;}
</style>
<path id="EFSET-Logo" class="st0" d="M369.1,159.1c0,23.8,13.4,46.9,46.2,46.9c34.9,0,48.3-25,48.3-46.9c0-58.2-85.5-31.8-85.5-84.2
	c0-19.6,12.5-38.7,38.2-38.7c24.3,0,39.6,13.7,39.6,37.5v4h4.7v-3.5c0-19.8-11.1-42.2-43.8-42.2c-33,0-43.4,25.7-43.4,42
	c0,28.5,18.9,36.5,44.3,44.6c19.8,6.4,41.2,13.4,41.2,39.4c0,30.4-20.3,43.9-43.8,43.9c-26.4,0-41.2-17-41.2-42.7v-7.3h-4.7V159.1z
	 M536.4,203.2h78.5v-4.2h-73.8v-81.6h66.7v-4.2h-66.7v-74H613v-4.2h-76.6V203.2z M720.9,203.2V39.1h-45.7v-4.2h96.1v4.2h-45.7v164.1
	H720.9z M60.8,34.8H79c-9.3,9.4-17.4,19.3-24.3,29.7L60.8,34.8z M58.7,145c0-15.9,3.6-32,10.8-48c7.4-16.6,18.3-32.1,32.4-46.2
	c5.9-5.9,12.1-11.2,18.6-16h28.7c-0.9,0.4-1.9,0.9-2.8,1.3c-12.4,6.1-23.9,14.3-34,24.3C101.9,71.1,93.4,82.7,87.3,95
	c-5.9,11.9-9.6,24.1-10.7,36.4c-2.3,24.8,5.6,47.6,22.4,64.4c3.5,3.5,7.3,6.6,11.5,9.2H80.8c-6.7-7.5-11.9-16-15.6-25.4
	C60.8,168.8,58.7,157.2,58.7,145z M64.3,94.7C56.8,111.4,53,128.3,53,145c0,12.9,2.3,25.3,6.9,36.7c3.4,8.4,7.9,16.2,13.5,23.3H48.2
	c-2.8-4.7-5.2-9.5-7.2-14.6c-3.3-8.2-5.6-16.9-6.8-25.9l17.1-83.4c8.4-15.5,19.4-30.1,32.8-43.5c1-0.9,1.9-1.9,2.9-2.8h24.2
	c-4.6,3.7-9.1,7.7-13.4,12C83.3,61.4,72,77.5,64.3,94.7z M213.8,112.6c0,11-5.6,22.6-15.7,32.7c-5.7,5.7-12.2,9.8-18.9,12.3l1.8-8.9
	c4.8-2.1,9.3-5.1,13.1-8.9c6.3-6.3,10.1-14.1,10.7-22c0.6-7.9-1.9-15.2-7.2-20.6c-1.5-1.5-3.3-2.8-5.2-3.9l1.9-9.5
	c3.8,1.4,7.3,3.6,10.2,6.5C210.5,96.5,213.8,104.1,213.8,112.6z M193.6,101.3c4.1,4.1,6.1,9.8,5.6,16.1c-0.5,6.6-3.7,13.1-9.1,18.4
	c-2.3,2.3-4.9,4.3-7.7,5.9l8.7-42.4C192,99.9,192.8,100.5,193.6,101.3z M202.1,149.3c11.2-11.2,17.3-24.2,17.3-36.7
	c0-10-3.8-19-10.9-26.2c-3.6-3.6-8.1-6.3-13-8.1l2.2-10.8c7.2,1.8,13.5,5.3,18.6,10.5c19.6,19.6,15.9,52.9-8.6,77.4
	c-9.5,9.5-20.6,16-31.9,19l2.1-10.4C186.7,161.3,195.1,156.3,202.1,149.3z M31.3,178.9c1.2,4.6,2.7,9.2,4.5,13.6
	c1.7,4.3,3.7,8.5,5.9,12.5H25.9L31.3,178.9z M122,74.4h-14.5c2.8-3.4,5.8-6.7,9-9.9c14.3-14.3,31.1-24.3,48.1-29.7h15.9l-1.8,8.9
	C159,46.6,139.8,56.6,124.4,72C123.6,72.8,122.8,73.6,122,74.4z M174.5,180.5c13.2-2.9,26.3-10.2,37.2-21.1
	c26.8-26.8,30.5-63.5,8.6-85.4c-5.9-5.9-13.3-10-21.5-12l2.6-12.5c11.1,1.9,21.2,6.8,29.2,14.8c10.7,10.7,16.5,23.8,17,38.5
	c0,0.7,0,1.5,0,2.2c0,3.2-0.2,6.4-0.7,9.6c-2.6,18.1-12.4,36.3-27.4,51.3c-13.3,13.2-30.2,22.3-47.3,25.7L174.5,180.5z M147.2,98.7
	h10.4c-1.2,1-2.4,2-3.5,3.1c-7.5,7.5-11.6,16.6-11.6,25.6c0,4.1,0.9,8,2.6,11.5h-10c-0.8-2.8-1.2-5.8-1.2-9
	C134,119.2,138.8,108,147.2,98.7z M173.8,67.5l-1.4,6.9h-16.6C161.6,71.2,167.6,68.8,173.8,67.5z M250.5,86.5
	c-3-9.8-8.3-18.6-15.9-26.1c-6.7-6.7-14.9-11.6-24.2-14.5c-2.6-0.8-5.2-1.4-7.9-1.9l1.9-9.2h16.5c8.9,3.3,17.1,8.4,24,15.2
	c7.1,7.1,12.5,15.3,16.1,24.3h-7.5l-2.7,13C250.7,87.1,250.6,86.8,250.5,86.5z M286.1,74.4H267c-3.8-10.6-9.9-20.1-18.1-28.3
	c-4.4-4.4-9.4-8.2-14.8-11.3h30.8C275.3,46.1,282.5,59.5,286.1,74.4z M177.4,49.7L175,61.5c-10.4,1.9-20.5,6.3-29.6,12.9H130
	C144.1,60.9,160.9,52.5,177.4,49.7z M153.9,164.7l-2.2,10.5c-7.4-1.7-14-5.2-19.7-10.5h21.8L153.9,164.7L153.9,164.7z M100.6,138.8
	c0-0.8,0-1.6,0-2.4c0-12.7,3.6-25.6,10.4-37.7H123c-6.5,10.8-10,22.7-10,34.2c0,2,0.1,4,0.3,5.9H100.6z M150.5,180.6l-2.5,11.9
	c-12.2-1.8-22.9-7.1-31.4-15.5c-3.7-3.7-6.7-7.8-9.2-12.3h16.7c0.8,0.9,1.6,1.9,2.5,2.7C133.4,174.1,141.5,178.6,150.5,180.6z
	 M103,191.8c-15.6-15.6-23-36.9-20.8-59.9c1.8-19,10-38.2,23.6-55.3l-4.5,22.1h3.3c-6.3,12.2-9.7,25-9.7,37.7c0,0.8,0,1.6,0.1,2.4
	h-2l-5.2,25.8h13.4c2.9,6,6.8,11.5,11.6,16.3c9.3,9.3,20.9,15.1,34.2,17.1l-1.5,7h-23C115.1,201.8,108.5,197.3,103,191.8z
	 M119,138.8c-0.2-1.9-0.3-3.9-0.3-5.9c0-11.6,3.9-23.6,11-34.2h10.2c-3,3.8-5.4,7.9-7.3,12.1c-2.8,6.3-4.2,12.7-4.2,19.1
	c0,3.1,0.3,6.1,1,9H119z M169.5,205l1.5-7.3c18.9-3.2,37.9-13,52.5-27.7c5.2-5.2,9.8-10.7,13.7-16.5l-4.7,22.9
	c-0.6,0.6-1.2,1.2-1.8,1.8c-12,12-26.7,21.2-42.3,26.8H169.5z M226.6,205h-23.8c10-4.9,19.4-11.3,27.7-18.8L226.6,205z M253.2,105.1
	h12.7c-0.1,2.2-0.3,4.5-0.6,6.7c-1.4,11.2-4.9,22.5-10.4,33.4h-12.6c5.3-9.6,8.8-19.6,10.2-29.7C253,112,253.2,108.6,253.2,105.1z
	 M272.3,34.8h26.6c2.6,4.5,4.9,9.3,6.9,14.2c3.2,8.1,5.4,16.5,6.7,25.3H292C288.6,59.8,282,46.3,272.3,34.8z M305.4,34.8h16.3
	L316,62.6c-1.3-5.3-2.9-10.5-4.9-15.6C309.4,42.8,307.5,38.7,305.4,34.8z M284.7,145.3c4.8-11.7,8-23.7,9.2-35.7
	c0.2-1.5,0.3-3,0.4-4.5h11.5l-8.1,40.1H284.7z M271.5,105.1h17.1c-0.1,1.3-0.2,2.6-0.3,3.9c-1.3,12.2-4.6,24.4-9.8,36.3h-17.4
	c5.1-10.7,8.4-21.7,9.8-32.7C271.2,110,271.4,107.6,271.5,105.1z M148.2,127.3c0-7.5,3.5-15.1,10-21.6c2.3-2.3,4.8-4.2,7.4-5.7
	l-7.8,38.8h-6C149.4,135.6,148.2,131.7,148.2,127.3z"/>
</svg>
